# xmcd CD database file
#
# Track frame offsets:
#	150
#	10489
#	20657
#	35583
#	48046
#	61616
#	75041
#	86365
#	98748
#	111774
#	124563
#	138819
#	152776
#	164544
#	176631
#	192162
#	206035
#	215673
#	226820
#	237589
#	250335
#	262574
#	273591
#
# Disc length: 3821 seconds
#
# Revision: 1
# Processed by: cddbd v1.5.2PL0 Copyright (c) Steve Scherf et al.
# Submitted via: CDex 1.70beta2
#
DISCID=280eeb17
DTITLE=Various Artist - Jazz Roads Cd382 - Bebop - White Bebop Boys Vol. 6 (1949-50)
DYEAR=1900
DGENRE=Jazz
TTITLE0=Terry Gibbs New Jazz Pirates - Michelle, Part 1
TTITLE1=Terry Gibbs New Jazz Pirates - Michelle, Part 2
TTITLE2=Terry Gibbs New Jazz Pirates - Michelle
TTITLE3=Terry Gibbs New Jazz Pirates - T and S
TTITLE4=Terry Gibbs New Jazz Pirates - Terry's Tune
TTITLE5=Terry Gibbs New Jazz Pirates - Cuddles (Speedway)
TTITLE6=Al Cohn Quartet - Groovin' With Gus
TTITLE7=Al Cohn Quartet - Groovin' With Gus
TTITLE8=Al Cohn Quartet - Infinity
TTITLE9=Al Cohn Quartet - Infinity
TTITLE10=Al Cohn Quartet - How Long Has This Been Going On
TTITLE11=Al Cohn Quartet - Let's Get Away From It All
TTITLE12=Zoot Sims Quartet - My Silent Love
TTITLE13=Zoot Sims Quartet - Jane-O
TTITLE14=Zoot Sims Quartet - Dancing In The Dark
TTITLE15=Zoot Sims Quartet - Memories Of You
TTITLE16=Stan Getz Quartet - Tootsie Roll
TTITLE17=Stan Getz Quartet - Strike Up The Band
TTITLE18=Stan Getz Quartet - Imagination
TTITLE19=Stan Getz Quartet - For Stompers Only
TTITLE20=Stan Getz Quartet - Navy Blue
TTITLE21=Stan Getz Quartet - Out Of Nowhere
TTITLE22=Stan Getz Quartet - 's Wonderful
EXTD=
EXTT0=
EXTT1=
EXTT2=
EXTT3=
EXTT4=
EXTT5=
EXTT6=
EXTT7=
EXTT8=
EXTT9=
EXTT10=
EXTT11=
EXTT12=
EXTT13=
EXTT14=
EXTT15=
EXTT16=
EXTT17=
EXTT18=
EXTT19=
EXTT20=
EXTT21=
EXTT22=
PLAYORDER=
